<svg xmlns="http://www.w3.org/2000/svg" width="1200.0000" height="750.0000" viewBox="-2.0000 -2.0000 32.0000 20.0000"><rect x="-2.0000" y="-2.0000" width="32.0000" height="20.0000" fill="#1a1a1a"/><defs><pattern id="keepout-hatch" patternUnits="userSpaceOnUse" width="1" height="1" patternTransform="rotate(45)"><line x1="0" y1="0" x2="0" y2="1" stroke="#FF6600" stroke-width="0.2"/></pattern></defs><path d="M 0.5000,14.7458 L 0.8021,15.1979 L 1.2542,15.5000 L 26.7458,15.5000 L 27.1979,15.1979 L 27.5000,14.7458 L 27.5000,1.2542 L 27.1979,0.8021 L 26.7458,0.5000 L 1.2542,0.5000 L 0.8021,0.8021 L 0.5000,1.2542 Z M 4.6720,5.6000 L 4.6924,5.4447 L 4.7524,5.3000 L 4.8477,5.1757 L 4.9720,5.0804 L 5.1167,5.0204 L 5.2720,5.0000 L 5.4273,5.0204 L 5.5720,5.0804 L 5.5976,5.1000 L 8.1969,5.1000 L 9.7682,3.5287 L 9.7724,3.4967 L 9.8324,3.3520 L 9.9277,3.2277 L 10.0520,3.1324 L 10.1967,3.0724 L 10.3520,3.0520 L 10.5073,3.0724 L 10.6520,3.1324 L 10.7763,3.2277 L 10.8716,3.3520 L 10.9316,3.4967 L 10.9520,3.6520 L 10.9316,3.8073 L 10.8716,3.9520 L 10.7763,4.0763 L 10.6520,4.1716 L 10.5073,4.2316 L 10.4753,4.2358 L 8.7576,5.9536 L 8.5953,6.0619 L 8.4040,6.1000 L 5.5976,6.1000 L 5.5720,6.1196 L 5.4273,6.1796 L 5.2720,6.2000 L 5.1167,6.1796 L 4.9720,6.1196 L 4.8477,6.0243 L 4.7524,5.9000 L 4.6924,5.7553 Z" fill="#4D7FC4" fill-opacity="0.55" fill-rule="evenodd" stroke="none"/><path d="M 5.2720 5.6000 L 8.4040 5.6000" stroke="#4D7FC4" stroke-width="0.4000" fill="none" stroke-linecap="round" stroke-linejoin="round"/><path d="M 8.4040 5.6000 L 10.3520 3.6520" stroke="#4D7FC4" stroke-width="0.4000" fill="none" stroke-linecap="round" stroke-linejoin="round"/><path d="M 1.5260 3.6750 L 2.7930 3.6750" stroke="#4D7FC4" stroke-width="0.4000" fill="none" stroke-linecap="round" stroke-linejoin="round"/><path d="M 1.5260 12.3250 L 2.7930 12.3250" stroke="#4D7FC4" stroke-width="0.4000" fill="none" stroke-linecap="round" stroke-linejoin="round"/><path d="M 2.7930 12.3250 L 2.7930 3.6750" stroke="#4D7FC4" stroke-width="0.4000" fill="none" stroke-linecap="round" stroke-linejoin="round"/><path d="M 0.5000,14.7458 L 0.8021,15.1979 L 1.2542,15.5000 L 26.7458,15.5000 L 27.1979,15.1979 L 27.5000,14.7458 L 27.5000,1.2542 L 27.1979,0.8021 L 26.7458,0.5000 L 1.2542,0.5000 L 0.8021,0.8021 L 0.5000,1.2542 Z M 4.6720,5.6000 L 4.6924,5.4447 L 4.7524,5.3000 L 4.8477,5.1757 L 4.9720,5.0804 L 5.1167,5.0204 L 5.2720,5.0000 L 5.4273,5.0204 L 5.5720,5.0804 L 5.5976,5.1000 L 5.6038,5.1000 L 5.6119,5.0879 L 5.7092,5.0229 L 5.8240,5.0001 L 7.1240,5.0001 L 7.2388,5.0229 L 7.3361,5.0879 L 7.4012,5.1853 L 7.4240,5.3001 L 7.4240,5.3154 L 7.5015,5.1995 L 7.6394,5.1074 L 7.8020,5.0750 L 7.8434,5.0750 L 7.8434,5.0680 L 7.8662,4.9532 L 7.9313,4.8559 L 8.0286,4.7908 L 8.1434,4.7680 L 8.9499,4.7680 L 9.0647,4.7908 L 9.1620,4.8559 L 9.2270,4.9532 L 9.2499,5.0680 L 9.2499,5.9320 L 9.2270,6.0468 L 9.1620,6.1441 L 9.0647,6.2092 L 8.9499,6.2320 L 8.2270,6.2320 L 8.2270,6.4140 L 8.1946,6.5766 L 8.1025,6.7145 L 7.7665,7.0505 L 7.6286,7.1426 L 7.4660,7.1750 L 7.4241,7.1750 L 7.4241,7.3999 L 7.4042,7.5000 L 7.4241,7.6001 L 7.4241,7.9001 L 7.4042,8.0000 L 7.4241,8.0999 L 7.4241,8.3999 L 7.4042,8.5000 L 7.4241,8.6001 L 7.4241,8.9001 L 7.4042,8.9999 L 7.4241,9.0997 L 7.4241,9.3250 L 7.7970,9.3250 L 7.9596,9.3574 L 8.0975,9.4495 L 8.1025,9.4545 L 8.1946,9.5924 L 8.2270,9.7550 L 8.2270,9.7680 L 8.9499,9.7680 L 9.0411,9.7862 L 9.0250,9.7050 L 9.0250,8.2950 L 9.0478,8.1802 L 9.1129,8.0829 L 9.2102,8.0178 L 9.3250,7.9950 L 10.6750,7.9950 L 10.7898,8.0178 L 10.8871,8.0829 L 10.9522,8.1802 L 10.9750,8.2950 L 10.9750,8.5750 L 11.2790,8.5750 L 11.4416,8.6074 L 11.5795,8.6995 L 11.7980,8.9179 L 11.8559,8.8313 L 11.9532,8.7662 L 12.0680,8.7434 L 12.8740,8.7434 L 12.8740,7.7430 L 11.7960,7.7430 L 11.6334,7.7106 L 11.4955,7.6185 L 11.4235,7.5465 L 11.3314,7.4086 L 11.2990,7.2460 L 11.2990,5.8230 L 11.3314,5.6604 L 11.4235,5.5225 L 11.4545,5.4915 L 11.5924,5.3994 L 11.7550,5.3670 L 11.7680,5.3670 L 11.7680,4.6434 L 11.7908,4.5286 L 11.8559,4.4313 L 11.9532,4.3662 L 12.0680,4.3434 L 12.9320,4.3434 L 13.0468,4.3662 L 13.1441,4.4313 L 13.2092,4.5286 L 13.2320,4.6434 L 13.2320,5.4499 L 13.2092,5.5647 L 13.1441,5.6620 L 13.0468,5.7270 L 12.9320,5.7499 L 12.9250,5.7499 L 12.9250,5.7920 L 12.9134,5.8501 L 12.9320,5.8501 L 13.0468,5.8730 L 13.1441,5.9380 L 13.2092,6.0353 L 13.2127,6.0530 L 13.3490,6.0530 L 13.5403,6.0911 L 13.7026,6.1994 L 13.7201,6.2170 L 15.0430,6.2170 L 15.0348,6.1760 L 15.0291,6.1771 L 15.0068,6.0646 L 15.0124,6.0635 L 15.0010,6.0060 L 15.0010,4.7941 L 15.0124,4.7367 L 15.0068,4.7355 L 15.0291,4.6230 L 15.0348,4.6241 L 15.0462,4.5667 L 15.0787,4.5181 L 15.0739,4.5149 L 15.0950,4.4834 L 15.0950,4.2901 L 14.9719,4.1670 L 14.9000,4.1670 L 14.8246,4.1520 L 10.6776,4.1520 L 10.6520,4.1716 L 10.5073,4.2316 L 10.3520,4.2520 L 10.1967,4.2316 L 10.0520,4.1716 L 9.9277,4.0763 L 9.8324,3.9520 L 9.7724,3.8073 L 9.7520,3.6520 L 9.7724,3.4967 L 9.8324,3.3520 L 9.9277,3.2277 L 10.0520,3.1324 L 10.1967,3.0724 L 10.3520,3.0520 L 10.5073,3.0724 L 10.6520,3.1324 L 10.6776,3.1520 L 14.2000,3.1520 L 14.2000,2.3500 L 14.2228,2.2352 L 14.2878,2.1379 L 14.3852,2.0728 L 14.5000,2.0500 L 15.3000,2.0500 L 15.4148,2.0728 L 15.5121,2.1379 L 15.5771,2.2352 L 15.6000,2.3500 L 15.6000,3.2500 L 15.5783,3.3592 L 15.9240,3.7049 L 16.1734,3.4554 L 16.3357,3.3471 L 16.5270,3.3090 L 19.4870,3.3090 L 19.6783,3.3471 L 19.8406,3.4554 L 20.4696,4.0844 L 20.5779,4.2467 L 20.6160,4.4380 L 20.6160,8.5720 L 20.5779,8.7633 L 20.4696,8.9256 L 19.9050,9.4901 L 19.9050,9.6779 L 19.9300,9.7100 L 19.9186,9.7177 L 19.9500,9.7700 L 19.9640,9.8212 L 19.9700,9.8200 L 19.9800,9.8800 L 20.0000,9.9900 L 20.0000,11.1520 L 20.7680,10.3840 L 20.7680,9.8501 L 20.7908,9.7353 L 20.8559,9.6380 L 20.9532,9.5730 L 21.0680,9.5501 L 21.0866,9.5501 L 21.0750,9.4920 L 21.0750,9.4499 L 21.0680,9.4499 L 20.9532,9.4270 L 20.8559,9.3620 L 20.7908,9.2647 L 20.7680,9.1499 L 20.7680,8.3434 L 20.7908,8.2286 L 20.8559,8.1313 L 20.9532,8.0662 L 21.0680,8.0434 L 21.9320,8.0434 L 22.0468,8.0662 L 22.1441,8.1313 L 22.2092,8.2286 L 22.2320,8.3434 L 22.2320,9.0670 L 22.2450,9.0670 L 22.4076,9.0994 L 22.5455,9.1915 L 22.5745,9.2205 L 22.6666,9.3584 L 22.6990,9.5210 L 22.6990,10.9860 L 22.6666,11.1486 L 22.6666,11.1486 L 22.5745,11.2865 L 22.5745,11.2865 L 22.5745,11.2865 L 22.5025,11.3585 L 22.5025,11.3585 L 22.4249,11.4104 L 22.4249,12.4000 L 22.4021,12.5148 L 22.3370,12.6121 L 22.2397,12.6771 L 22.1249,12.7000 L 20.8749,12.7000 L 20.7601,12.6771 L 20.6628,12.6121 L 20.5977,12.5148 L 20.5749,12.4000 L 20.5749,11.7791 L 20.2115,12.1425 L 20.0736,12.2346 L 19.9110,12.2670 L 18.1350,12.2670 L 17.9724,12.2346 L 17.8345,12.1425 L 17.7424,12.0046 L 17.7100,11.8420 L 17.7100,11.6075 L 17.6852,11.5765 L 17.6800,11.5800 L 17.6560,11.5400 L 17.6400,11.5200 L 17.6387,11.5133 L 17.5800,11.4400 L 17.5697,11.3781 L 17.5600,11.3800 L 17.5400,11.2600 L 17.5497,11.2581 L 17.5400,11.2000 L 17.5400,10.0000 L 17.5497,9.9419 L 17.5400,9.9400 L 17.5600,9.8200 L 17.5697,9.8219 L 17.5800,9.7600 L 17.6387,9.6867 L 17.6400,9.6800 L 17.6560,9.6600 L 17.6800,9.6200 L 17.6852,9.6235 L 17.7200,9.5800 L 17.7635,9.5452 L 17.7600,9.5400 L 17.8000,9.5160 L 17.8200,9.5000 L 17.8300,9.4980 L 17.8600,9.4800 L 17.9000,9.4400 L 17.9619,9.4297 L 17.9600,9.4200 L 18.0800,9.4000 L 18.0819,9.4097 L 18.1400,9.4000 L 18.1977,9.4115 L 18.2000,9.4000 L 18.3000,9.4200 L 18.2981,9.4297 L 18.3600,9.4400 L 18.4165,9.4852 L 18.4200,9.4800 L 18.4429,9.4971 L 18.4600,9.5000 L 18.5600,9.5800 L 18.5886,9.6277 L 18.6000,9.6200 L 18.6600,9.7200 L 18.6571,9.7218 L 18.6800,9.7600 L 18.6903,9.8220 L 18.7000,9.8200 L 18.7200,9.9400 L 18.7103,9.9420 L 18.7200,10.0000 L 18.7200,11.2000 L 18.7103,11.2580 L 18.7200,11.2600 L 18.7000,11.3800 L 18.6903,11.3780 L 18.6838,11.4170 L 18.8565,11.4170 L 18.8460,11.3788 L 18.8400,11.3800 L 18.8300,11.3200 L 18.8100,11.2100 L 18.8100,9.9900 L 18.8300,9.8800 L 18.8400,9.8200 L 18.8460,9.8212 L 18.8600,9.7700 L 18.8914,9.7177 L 18.8800,9.7100 L 18.9050,9.6779 L 18.9050,9.2830 L 18.9431,9.0917 L 19.0514,8.9294 L 19.6160,8.3649 L 19.6160,6.5581 L 19.5749,6.5663 L 19.5760,6.5719 L 19.4635,6.5943 L 19.4624,6.5886 L 19.4050,6.6001 L 19.3476,6.5886 L 19.3465,6.5943 L 19.2340,6.5719 L 19.2351,6.5663 L 19.1777,6.5548 L 19.1290,6.5223 L 19.1258,6.5271 L 19.0304,6.4634 L 19.0336,6.4586 L 18.9850,6.4261 L 18.9525,6.3774 L 18.9477,6.3806 L 18.8839,6.2852 L 18.8887,6.2820 L 18.8562,6.2334 L 18.8448,6.1760 L 18.8391,6.1771 L 18.8168,6.0646 L 18.8224,6.0635 L 18.8110,6.0060 L 18.8110,4.7941 L 18.8224,4.7367 L 18.8168,4.7355 L 18.8391,4.6230 L 18.8448,4.6241 L 18.8562,4.5667 L 18.8887,4.5181 L 18.8839,4.5149 L 18.9477,4.4195 L 18.9525,4.4227 L 18.9850,4.3740 L 19.0336,4.3415 L 19.0304,4.3367 L 19.0719,4.3090 L 18.4681,4.3090 L 18.5096,4.3367 L 18.5064,4.3415 L 18.5550,4.3740 L 18.5875,4.4227 L 18.5923,4.4195 L 18.6561,4.5149 L 18.6513,4.5181 L 18.6838,4.5667 L 18.6952,4.6241 L 18.7009,4.6230 L 18.7232,4.7355 L 18.7176,4.7367 L 18.7290,4.7941 L 18.7290,6.0060 L 18.7176,6.0635 L 18.7232,6.0646 L 18.7009,6.1771 L 18.6952,6.1760 L 18.6838,6.2334 L 18.6513,6.2820 L 18.6561,6.2852 L 18.5923,6.3806 L 18.5875,6.3774 L 18.5600,6.4186 L 18.5600,8.0880 L 18.5276,8.2506 L 18.4355,8.3885 L 17.2900,9.5340 L 17.2900,9.5925 L 17.3148,9.6235 L 17.3200,9.6200 L 17.3440,9.6600 L 17.3600,9.6800 L 17.3613,9.6867 L 17.4200,9.7600 L 17.4303,9.8219 L 17.4400,9.8200 L 17.4600,9.9400 L 17.4503,9.9419 L 17.4600,10.0000 L 17.4600,11.2000 L 17.4503,11.2581 L 17.4600,11.2600 L 17.4400,11.3800 L 17.4303,11.3781 L 17.4200,11.4400 L 17.3613,11.5133 L 17.3600,11.5200 L 17.3440,11.5400 L 17.3200,11.5800 L 17.3148,11.5765 L 17.2800,11.6200 L 17.2365,11.6548 L 17.2400,11.6600 L 17.2000,11.6840 L 17.1800,11.7000 L 17.1700,11.7020 L 17.1400,11.7200 L 17.1000,11.7600 L 17.0381,11.7703 L 17.0400,11.7800 L 16.9200,11.8000 L 16.9181,11.7903 L 16.8600,11.8000 L 16.8023,11.7885 L 16.8000,11.8000 L 16.7000,11.7800 L 16.7019,11.7703 L 16.6400,11.7600 L 16.5835,11.7148 L 16.5800,11.7200 L 16.5571,11.7029 L 16.5400,11.7000 L 16.4400,11.6200 L 16.4114,11.5723 L 16.4000,11.5800 L 16.3400,11.4800 L 16.3429,11.4782 L 16.3200,11.4400 L 16.3097,11.3780 L 16.3000,11.3800 L 16.2800,11.2600 L 16.2897,11.2580 L 16.2800,11.2000 L 16.2800,10.0000 L 16.2897,9.9420 L 16.2800,9.9400 L 16.3000,9.8200 L 16.3097,9.8220 L 16.3162,9.7830 L 15.3570,9.7830 L 15.3570,10.0100 L 15.3246,10.1726 L 15.2325,10.3105 L 13.5445,11.9985 L 13.4066,12.0906 L 13.2440,12.1230 L 11.7980,12.1230 L 11.6354,12.0906 L 11.4975,11.9985 L 11.4255,11.9265 L 11.3334,11.7886 L 11.3010,11.6260 L 11.3010,9.6230 L 11.1030,9.4250 L 10.9750,9.4250 L 10.9750,9.7050 L 10.9522,9.8198 L 10.8871,9.9171 L 10.7898,9.9822 L 10.6750,10.0050 L 9.3250,10.0050 L 9.2337,9.9868 L 9.2499,10.0680 L 9.2499,10.9320 L 9.2270,11.0468 L 9.1620,11.1441 L 9.0647,11.2092 L 8.9499,11.2320 L 8.1434,11.2320 L 8.0286,11.2092 L 7.9313,11.1441 L 7.8662,11.0468 L 7.8434,10.9320 L 7.8434,10.9250 L 7.8020,10.9250 L 7.6394,10.8926 L 7.5015,10.8005 L 7.4242,10.6848 L 7.4242,10.7002 L 7.4013,10.8150 L 7.3363,10.9123 L 7.2390,10.9773 L 7.1242,11.0002 L 5.8242,11.0002 L 5.7094,10.9773 L 5.6121,10.9123 L 5.6038,10.9000 L 5.3700,10.9000 L 5.1787,10.8619 L 5.0164,10.7536 L 4.9184,10.6556 L 4.8101,10.4933 L 4.7720,10.3020 L 4.7720,5.9256 L 4.7524,5.9000 L 4.6924,5.7553 Z M 13.2320,11.1090 L 14.5070,9.8340 L 14.5070,9.4300 L 14.5394,9.2674 L 14.5394,9.2674 L 14.6315,9.1295 L 14.6315,9.1295 L 14.7035,9.0575 L 14.7035,9.0575 L 14.8414,8.9654 L 15.0040,8.9330 L 16.6890,8.9330 L 17.7100,7.9120 L 17.7100,6.4186 L 17.6825,6.3774 L 17.6777,6.3806 L 17.6139,6.2852 L 17.6187,6.2820 L 17.5862,6.2334 L 17.5748,6.1760 L 17.5691,6.1771 L 17.5468,6.0646 L 17.5524,6.0635 L 17.5410,6.0060 L 17.5410,4.7941 L 17.5524,4.7367 L 17.5468,4.7355 L 17.5691,4.6230 L 17.5748,4.6241 L 17.5862,4.5667 L 17.6187,4.5181 L 17.6139,4.5149 L 17.6777,4.4195 L 17.6825,4.4227 L 17.7150,4.3740 L 17.7636,4.3415 L 17.7604,4.3367 L 17.8019,4.3090 L 17.1957,4.3090 L 17.2400,4.3400 L 17.2900,4.3700 L 17.3200,4.4200 L 17.3900,4.5100 L 17.3786,4.5177 L 17.4100,4.5700 L 17.4240,4.6212 L 17.4300,4.6200 L 17.4400,4.6800 L 17.4400,4.6800 L 17.4600,4.7900 L 17.4600,6.0100 L 17.4400,6.1200 L 17.4300,6.1800 L 17.4240,6.1788 L 17.4100,6.2300 L 17.3786,6.2823 L 17.3900,6.2900 L 17.3200,6.3800 L 17.2900,6.4300 L 17.2900,6.6420 L 17.2576,6.8046 L 17.1655,6.9425 L 16.4895,7.6185 L 16.3516,7.7106 L 16.1890,7.7430 L 13.7240,7.7430 L 13.7240,10.1360 L 13.6916,10.2986 L 13.6916,10.2986 L 13.5995,10.4365 L 13.5995,10.4365 L 13.5275,10.5085 L 13.5275,10.5085 L 13.3896,10.6006 L 13.2320,10.6320 Z M 16.0717,6.8343 L 16.4400,6.4660 L 16.4400,6.4300 L 16.4100,6.3800 L 16.3400,6.2900 L 16.3514,6.2823 L 16.3200,6.2300 L 16.3060,6.1788 L 16.3000,6.1800 L 16.2900,6.1200 L 16.2700,6.0100 L 16.2700,4.7900 L 16.2738,4.7694 L 16.1890,4.8541 L 16.1890,6.0060 L 16.1776,6.0635 L 16.1832,6.0646 L 16.1609,6.1771 L 16.1552,6.1760 L 16.1438,6.2334 L 16.1113,6.2820 L 16.1161,6.2852 L 16.0950,6.3168 L 16.0950,6.7170 Z" fill="#C83434" fill-opacity="0.55" fill-rule="evenodd" stroke="none"/><path d="M 5.2720 5.6000 L 5.2720 10.3020" stroke="#C83434" stroke-width="0.4000" fill="none" stroke-linecap="round" stroke-linejoin="round"/><path d="M 5.2720 10.3020 L 5.3700 10.4000" stroke="#C83434" stroke-width="0.4000" fill="none" stroke-linecap="round" stroke-linejoin="round"/><path d="M 5.3700 10.4000 L 6.4740 10.4000" stroke="#C83434" stroke-width="0.4000" fill="none" stroke-linecap="round" stroke-linejoin="round"/><path d="M 14.9000 3.6520 L 10.3520 3.6520" stroke="#C83434" stroke-width="0.4000" fill="none" stroke-linecap="round" stroke-linejoin="round"/><path d="M 5.2720 5.6000 L 6.4740 5.6000" stroke="#C83434" stroke-width="0.4000" fill="none" stroke-linecap="round" stroke-linejoin="round"/><path d="M 14.9000 3.6520 L 14.9000 3.6670" stroke="#C83434" stroke-width="0.4000" fill="none" stroke-linecap="round" stroke-linejoin="round"/><path d="M 14.9000 3.5080 L 14.9000 3.6520" stroke="#C83434" stroke-width="0.4000" fill="none" stroke-linecap="round" stroke-linejoin="round"/><path d="M 14.9000 2.8000 L 14.9000 3.5080" stroke="#C83434" stroke-width="0.4000" fill="none" stroke-linecap="round" stroke-linejoin="round"/><path d="M 19.4050 10.6000 L 19.4050 9.2830" stroke="#C83434" stroke-width="0.4000" fill="none" stroke-linecap="round" stroke-linejoin="round"/><path d="M 15.5950 4.7410 L 16.5270 3.8090" stroke="#C83434" stroke-width="0.4000" fill="none" stroke-linecap="round" stroke-linejoin="round"/><path d="M 16.5270 3.8090 L 19.4870 3.8090" stroke="#C83434" stroke-width="0.4000" fill="none" stroke-linecap="round" stroke-linejoin="round"/><path d="M 19.4870 3.8090 L 20.1160 4.4380" stroke="#C83434" stroke-width="0.4000" fill="none" stroke-linecap="round" stroke-linejoin="round"/><path d="M 20.1160 4.4380 L 20.1160 8.5720" stroke="#C83434" stroke-width="0.4000" fill="none" stroke-linecap="round" stroke-linejoin="round"/><path d="M 20.1160 8.5720 L 19.4050 9.2830" stroke="#C83434" stroke-width="0.4000" fill="none" stroke-linecap="round" stroke-linejoin="round"/><path d="M 15.5950 4.7410 L 15.5950 4.0830" stroke="#C83434" stroke-width="0.4000" fill="none" stroke-linecap="round" stroke-linejoin="round"/><path d="M 15.5950 5.4000 L 15.5950 4.7410" stroke="#C83434" stroke-width="0.4000" fill="none" stroke-linecap="round" stroke-linejoin="round"/><path d="M 14.9000 3.6670 L 15.1790 3.6670" stroke="#C83434" stroke-width="0.4000" fill="none" stroke-linecap="round" stroke-linejoin="round"/><path d="M 15.1790 3.6670 L 15.5950 4.0830" stroke="#C83434" stroke-width="0.4000" fill="none" stroke-linecap="round" stroke-linejoin="round"/><path d="M 12.5000 6.5530 L 13.3490 6.5530" stroke="#C83434" stroke-width="0.4000" fill="none" stroke-linecap="round" stroke-linejoin="round"/><path d="M 15.5950 5.4000 L 15.5950 6.7170" stroke="#C83434" stroke-width="0.4000" fill="none" stroke-linecap="round" stroke-linejoin="round"/><path d="M 13.3490 6.5530 L 13.5130 6.7170" stroke="#C83434" stroke-width="0.4000" fill="none" stroke-linecap="round" stroke-linejoin="round"/><path d="M 13.5130 6.7170 L 15.5950 6.7170" stroke="#C83434" stroke-width="0.4000" fill="none" stroke-linecap="round" stroke-linejoin="round"/><path d="M 16.8650 6.6420 L 16.1890 7.3180" stroke="#C83434" stroke-width="0.2500" fill="none" stroke-linecap="round" stroke-linejoin="round"/><path d="M 16.1890 7.3180 L 13.2990 7.3180" stroke="#C83434" stroke-width="0.2500" fill="none" stroke-linecap="round" stroke-linejoin="round"/><path d="M 13.2990 7.3180 L 11.7960 7.3180" stroke="#C83434" stroke-width="0.2500" fill="none" stroke-linecap="round" stroke-linejoin="round"/><path d="M 11.7960 7.3180 L 11.7240 7.2460" stroke="#C83434" stroke-width="0.2500" fill="none" stroke-linecap="round" stroke-linejoin="round"/><path d="M 11.7240 7.2460 L 11.7240 5.8230" stroke="#C83434" stroke-width="0.2500" fill="none" stroke-linecap="round" stroke-linejoin="round"/><path d="M 11.7240 5.8230 L 11.7550 5.7920" stroke="#C83434" stroke-width="0.2500" fill="none" stroke-linecap="round" stroke-linejoin="round"/><path d="M 11.7550 5.7920 L 12.5000 5.7920" stroke="#C83434" stroke-width="0.2500" fill="none" stroke-linecap="round" stroke-linejoin="round"/><path d="M 12.5000 10.2080 L 13.2270 10.2080" stroke="#C83434" stroke-width="0.2500" fill="none" stroke-linecap="round" stroke-linejoin="round"/><path d="M 13.2270 10.2080 L 13.2990 10.1360" stroke="#C83434" stroke-width="0.2500" fill="none" stroke-linecap="round" stroke-linejoin="round"/><path d="M 13.2990 10.1360 L 13.2990 7.3180" stroke="#C83434" stroke-width="0.2500" fill="none" stroke-linecap="round" stroke-linejoin="round"/><path d="M 12.5000 10.9530 L 12.5000 10.2080" stroke="#C83434" stroke-width="0.2500" fill="none" stroke-linecap="round" stroke-linejoin="round"/><path d="M 12.5000 5.0470 L 12.5000 5.7920" stroke="#C83434" stroke-width="0.2500" fill="none" stroke-linecap="round" stroke-linejoin="round"/><path d="M 16.8650 5.4000 L 16.8650 6.6420" stroke="#C83434" stroke-width="0.2500" fill="none" stroke-linecap="round" stroke-linejoin="round"/><path d="M 18.1350 10.6000 L 18.1350 11.8420" stroke="#C83434" stroke-width="0.2500" fill="none" stroke-linecap="round" stroke-linejoin="round"/><path d="M 21.5000 10.2530 L 19.9110 11.8420" stroke="#C83434" stroke-width="0.2500" fill="none" stroke-linecap="round" stroke-linejoin="round"/><path d="M 19.9110 11.8420 L 18.1350 11.8420" stroke="#C83434" stroke-width="0.2500" fill="none" stroke-linecap="round" stroke-linejoin="round"/><path d="M 21.5000 8.7470 L 21.5000 9.4920" stroke="#C83434" stroke-width="0.2500" fill="none" stroke-linecap="round" stroke-linejoin="round"/><path d="M 21.5000 11.9000 L 21.5000 11.0580" stroke="#C83434" stroke-width="0.2500" fill="none" stroke-linecap="round" stroke-linejoin="round"/><path d="M 21.5000 11.0580 L 22.2020 11.0580" stroke="#C83434" stroke-width="0.2500" fill="none" stroke-linecap="round" stroke-linejoin="round"/><path d="M 22.2020 11.0580 L 22.2740 10.9860" stroke="#C83434" stroke-width="0.2500" fill="none" stroke-linecap="round" stroke-linejoin="round"/><path d="M 22.2740 10.9860 L 22.2740 9.5210" stroke="#C83434" stroke-width="0.2500" fill="none" stroke-linecap="round" stroke-linejoin="round"/><path d="M 22.2740 9.5210 L 22.2450 9.4920" stroke="#C83434" stroke-width="0.2500" fill="none" stroke-linecap="round" stroke-linejoin="round"/><path d="M 22.2450 9.4920 L 21.5000 9.4920" stroke="#C83434" stroke-width="0.2500" fill="none" stroke-linecap="round" stroke-linejoin="round"/><path d="M 11.7260 9.4470 L 11.7260 11.6260" stroke="#C83434" stroke-width="0.2500" fill="none" stroke-linecap="round" stroke-linejoin="round"/><path d="M 11.7260 11.6260 L 11.7980 11.6980" stroke="#C83434" stroke-width="0.2500" fill="none" stroke-linecap="round" stroke-linejoin="round"/><path d="M 11.7980 11.6980 L 13.2440 11.6980" stroke="#C83434" stroke-width="0.2500" fill="none" stroke-linecap="round" stroke-linejoin="round"/><path d="M 13.2440 11.6980 L 14.9320 10.0100" stroke="#C83434" stroke-width="0.2500" fill="none" stroke-linecap="round" stroke-linejoin="round"/><path d="M 14.9320 10.0100 L 14.9320 9.4300" stroke="#C83434" stroke-width="0.2500" fill="none" stroke-linecap="round" stroke-linejoin="round"/><path d="M 14.9320 9.4300 L 15.0040 9.3580" stroke="#C83434" stroke-width="0.2500" fill="none" stroke-linecap="round" stroke-linejoin="round"/><path d="M 15.0040 9.3580 L 16.8500 9.3580" stroke="#C83434" stroke-width="0.2500" fill="none" stroke-linecap="round" stroke-linejoin="round"/><path d="M 16.8500 9.3580 L 16.8650 9.3730" stroke="#C83434" stroke-width="0.2500" fill="none" stroke-linecap="round" stroke-linejoin="round"/><path d="M 10.0000 9.0000 L 11.2790 9.0000" stroke="#C83434" stroke-width="0.2500" fill="none" stroke-linecap="round" stroke-linejoin="round"/><path d="M 11.2790 9.0000 L 11.7260 9.4470" stroke="#C83434" stroke-width="0.2500" fill="none" stroke-linecap="round" stroke-linejoin="round"/><path d="M 16.8650 9.3730 L 16.8650 9.3580" stroke="#C83434" stroke-width="0.2500" fill="none" stroke-linecap="round" stroke-linejoin="round"/><path d="M 16.8650 10.6000 L 16.8650 9.3730" stroke="#C83434" stroke-width="0.2500" fill="none" stroke-linecap="round" stroke-linejoin="round"/><path d="M 16.8650 9.3580 L 18.1350 8.0880" stroke="#C83434" stroke-width="0.2500" fill="none" stroke-linecap="round" stroke-linejoin="round"/><path d="M 18.1350 8.0880 L 18.1350 5.4000" stroke="#C83434" stroke-width="0.2500" fill="none" stroke-linecap="round" stroke-linejoin="round"/><path d="M 11.7410 9.4470 L 11.7260 9.4470" stroke="#C83434" stroke-width="0.2500" fill="none" stroke-linecap="round" stroke-linejoin="round"/><path d="M 11.8470 9.4470 L 11.7410 9.4470" stroke="#C83434" stroke-width="0.2500" fill="none" stroke-linecap="round" stroke-linejoin="round"/><path d="M 12.5000 9.4470 L 11.8470 9.4470" stroke="#C83434" stroke-width="0.2500" fill="none" stroke-linecap="round" stroke-linejoin="round"/><path d="M 1.5260 12.3250 L 5.7060 12.3250" stroke="#C83434" stroke-width="0.4000" fill="none" stroke-linecap="round" stroke-linejoin="round"/><path d="M 5.7060 12.3250 L 7.0730 12.3250" stroke="#C83434" stroke-width="0.4000" fill="none" stroke-linecap="round" stroke-linejoin="round"/><path d="M 7.4910 11.7620 L 7.4910 11.2000" stroke="#C83434" stroke-width="0.4000" fill="none" stroke-linecap="round" stroke-linejoin="round"/><path d="M 7.0730 12.3250 L 7.0730 12.1800" stroke="#C83434" stroke-width="0.4000" fill="none" stroke-linecap="round" stroke-linejoin="round"/><path d="M 7.0730 12.1800 L 7.4910 11.7620" stroke="#C83434" stroke-width="0.4000" fill="none" stroke-linecap="round" stroke-linejoin="round"/><path d="M 9.5970 10.9560 L 8.7910 11.7620" stroke="#C83434" stroke-width="0.4000" fill="none" stroke-linecap="round" stroke-linejoin="round"/><path d="M 8.7910 11.7620 L 7.4910 11.7620" stroke="#C83434" stroke-width="0.4000" fill="none" stroke-linecap="round" stroke-linejoin="round"/><path d="M 6.4740 11.2000 L 7.4910 11.2000" stroke="#C83434" stroke-width="0.4000" fill="none" stroke-linecap="round" stroke-linejoin="round"/><path d="M 7.0730 3.6750 L 7.6400 4.2420" stroke="#C83434" stroke-width="0.4000" fill="none" stroke-linecap="round" stroke-linejoin="round"/><path d="M 7.6400 4.2420 L 7.6400 4.6510" stroke="#C83434" stroke-width="0.4000" fill="none" stroke-linecap="round" stroke-linejoin="round"/><path d="M 7.6400 4.6510 L 7.4910 4.8000" stroke="#C83434" stroke-width="0.4000" fill="none" stroke-linecap="round" stroke-linejoin="round"/><path d="M 10.0530 5.5000 L 9.2040 4.6510" stroke="#C83434" stroke-width="0.4000" fill="none" stroke-linecap="round" stroke-linejoin="round"/><path d="M 9.2040 4.6510 L 7.6400 4.6510" stroke="#C83434" stroke-width="0.4000" fill="none" stroke-linecap="round" stroke-linejoin="round"/><path d="M 16.3000 1.9830 L 16.1680 1.8510" stroke="#C83434" stroke-width="0.4000" fill="none" stroke-linecap="round" stroke-linejoin="round"/><path d="M 16.1680 1.8510 L 8.8970 1.8510" stroke="#C83434" stroke-width="0.4000" fill="none" stroke-linecap="round" stroke-linejoin="round"/><path d="M 8.8970 1.8510 L 7.0730 3.6750" stroke="#C83434" stroke-width="0.4000" fill="none" stroke-linecap="round" stroke-linejoin="round"/><path d="M 1.5260 3.6750 L 5.7060 3.6750" stroke="#C83434" stroke-width="0.4000" fill="none" stroke-linecap="round" stroke-linejoin="round"/><path d="M 10.0530 10.5000 L 9.5970 10.9560" stroke="#C83434" stroke-width="0.4000" fill="none" stroke-linecap="round" stroke-linejoin="round"/><path d="M 16.7520 13.0240 L 11.6650 13.0240" stroke="#C83434" stroke-width="0.4000" fill="none" stroke-linecap="round" stroke-linejoin="round"/><path d="M 11.6650 13.0240 L 9.5970 10.9560" stroke="#C83434" stroke-width="0.4000" fill="none" stroke-linecap="round" stroke-linejoin="round"/><path d="M 16.7520 13.0240 L 15.5950 11.8670" stroke="#C83434" stroke-width="0.4000" fill="none" stroke-linecap="round" stroke-linejoin="round"/><path d="M 21.5000 14.1000 L 17.8280 14.1000" stroke="#C83434" stroke-width="0.4000" fill="none" stroke-linecap="round" stroke-linejoin="round"/><path d="M 17.8280 14.1000 L 16.7520 13.0240" stroke="#C83434" stroke-width="0.4000" fill="none" stroke-linecap="round" stroke-linejoin="round"/><path d="M 6.4740 4.8000 L 7.4910 4.8000" stroke="#C83434" stroke-width="0.4000" fill="none" stroke-linecap="round" stroke-linejoin="round"/><path d="M 10.0000 7.0000 L 10.0000 5.9280" stroke="#C83434" stroke-width="0.4000" fill="none" stroke-linecap="round" stroke-linejoin="round"/><path d="M 10.0000 5.9280 L 10.0530 5.8750" stroke="#C83434" stroke-width="0.4000" fill="none" stroke-linecap="round" stroke-linejoin="round"/><path d="M 10.0530 5.8750 L 10.0530 5.5000" stroke="#C83434" stroke-width="0.4000" fill="none" stroke-linecap="round" stroke-linejoin="round"/><path d="M 5.7060 3.6750 L 7.0730 3.6750" stroke="#C83434" stroke-width="0.4000" fill="none" stroke-linecap="round" stroke-linejoin="round"/><path d="M 16.3000 2.8000 L 16.3000 1.9830" stroke="#C83434" stroke-width="0.4000" fill="none" stroke-linecap="round" stroke-linejoin="round"/><path d="M 15.5950 10.6000 L 15.5950 11.8670" stroke="#C83434" stroke-width="0.4000" fill="none" stroke-linecap="round" stroke-linejoin="round"/><path d="M 6.4740 6.7500 L 7.4660 6.7500" stroke="#C83434" stroke-width="0.2500" fill="none" stroke-linecap="round" stroke-linejoin="round"/><path d="M 8.5470 5.5000 L 7.8020 5.5000" stroke="#C83434" stroke-width="0.2500" fill="none" stroke-linecap="round" stroke-linejoin="round"/><path d="M 7.8020 5.5000 L 7.8020 6.4140" stroke="#C83434" stroke-width="0.2500" fill="none" stroke-linecap="round" stroke-linejoin="round"/><path d="M 7.8020 6.4140 L 7.4660 6.7500" stroke="#C83434" stroke-width="0.2500" fill="none" stroke-linecap="round" stroke-linejoin="round"/><path d="M 8.5470 10.5000 L 7.8020 10.5000" stroke="#C83434" stroke-width="0.2500" fill="none" stroke-linecap="round" stroke-linejoin="round"/><path d="M 7.8020 10.5000 L 7.8020 9.7550" stroke="#C83434" stroke-width="0.2500" fill="none" stroke-linecap="round" stroke-linejoin="round"/><path d="M 7.8020 9.7550 L 7.7970 9.7500" stroke="#C83434" stroke-width="0.2500" fill="none" stroke-linecap="round" stroke-linejoin="round"/><path d="M 7.7970 9.7500 L 6.4740 9.7500" stroke="#C83434" stroke-width="0.2500" fill="none" stroke-linecap="round" stroke-linejoin="round"/><polygon points="5.8241,6.0999 5.8241,6.3999 7.1241,6.3999 7.1241,6.0999" fill="#C83434"/><polygon points="5.8241,6.6001 5.8241,6.9001 7.1241,6.9001 7.1241,6.6001" fill="#C83434"/><polygon points="5.8241,7.0999 5.8241,7.3999 7.1241,7.3999 7.1241,7.0999" fill="#C83434"/><polygon points="5.8241,7.6001 5.8241,7.9001 7.1241,7.9001 7.1241,7.6001" fill="#C83434"/><polygon points="5.8241,8.0999 5.8241,8.3999 7.1241,8.3999 7.1241,8.0999" fill="#C83434"/><polygon points="5.8241,8.6001 5.8241,8.9001 7.1241,8.9001 7.1241,8.6001" fill="#C83434"/><polygon points="5.8241,9.0997 5.8241,9.3997 7.1241,9.3997 7.1241,9.0997" fill="#C83434"/><polygon points="5.8241,9.6001 5.8241,9.9001 7.1241,9.9001 7.1241,9.6001" fill="#C83434"/><polygon points="5.8242,5.1000 7.1242,5.1000 7.1242,5.1000 7.1242,4.8000 7.1242,4.8000 7.1240,4.8000 7.1240,4.8000 7.1240,4.5001 7.1240,4.5001 5.8240,4.5001 5.8240,4.5001 5.8240,4.8001 5.8240,4.8001 5.8242,4.8001 5.8242,4.8001 5.8242,5.1000" fill="#C83434"/><polygon points="7.1242,10.9000 5.8242,10.9000 5.8242,10.9000 5.8242,11.2000 5.8242,11.2000 5.8242,11.2000 5.8242,11.2000 5.8242,11.5000 5.8242,11.5000 7.1242,11.5000 7.1242,11.5000 7.1242,11.2000 7.1242,11.2000 7.1242,11.2000 7.1242,11.2000 7.1242,10.9000" fill="#C83434"/><polygon points="5.8242,10.7002 7.1242,10.7002 7.1242,10.7002 7.1242,10.4002 7.1242,10.4002 7.1242,10.4001 7.1242,10.4001 7.1242,10.1001 7.1242,10.1001 5.8242,10.1001 5.8242,10.1001 5.8242,10.4001 5.8242,10.4001 5.8242,10.4002 5.8242,10.4002 5.8242,10.7002" fill="#C83434"/><polygon points="5.8241,5.9000 7.1240,5.9000 7.1240,5.9000 7.1240,5.6000 7.1240,5.6000 7.1240,5.6000 7.1240,5.6000 7.1240,5.3001 7.1240,5.3001 5.8240,5.3001 5.8240,5.3001 5.8240,5.6001 5.8240,5.6001 5.8241,5.6001 5.8241,5.6001 5.8241,5.9000" fill="#C83434"/><polygon points="19.1334,6.1186 19.1971,6.2139 19.2925,6.2777 19.4050,6.3001 19.5175,6.2777 19.6129,6.2139 19.6766,6.1186 19.6990,6.0060 19.6990,4.7941 19.6766,4.6816 19.6129,4.5862 19.5175,4.5224 19.4050,4.5001 19.2925,4.5224 19.1971,4.5862 19.1334,4.6816 19.1110,4.7941 19.1110,6.0060" fill="#C83434"/><polygon points="17.8634,6.1186 17.9271,6.2139 18.0225,6.2777 18.1350,6.3001 18.2475,6.2777 18.3429,6.2139 18.4066,6.1186 18.4290,6.0060 18.4290,4.7941 18.4066,4.6816 18.3429,4.5862 18.2475,4.5224 18.1350,4.5001 18.0225,4.5224 17.9271,4.5862 17.8634,4.6816 17.8410,4.7941 17.8410,6.0060" fill="#C83434"/><polygon points="16.5934,6.1186 16.6571,6.2139 16.7525,6.2777 16.8650,6.3001 16.9775,6.2777 17.0729,6.2139 17.1366,6.1186 17.1590,6.0060 17.1590,4.7941 17.1366,4.6816 17.0729,4.5862 16.9775,4.5224 16.8650,4.5001 16.7525,4.5224 16.6571,4.5862 16.5934,4.6816 16.5710,4.7941 16.5710,6.0060" fill="#C83434"/><polygon points="15.3234,6.1186 15.3871,6.2139 15.4825,6.2777 15.5950,6.3001 15.7075,6.2777 15.8029,6.2139 15.8666,6.1186 15.8890,6.0060 15.8890,4.7941 15.8666,4.6816 15.8029,4.5862 15.7075,4.5224 15.5950,4.5001 15.4825,4.5224 15.3871,4.5862 15.3234,4.6816 15.3010,4.7941 15.3010,6.0060" fill="#C83434"/><polygon points="19.1334,11.3184 19.1971,11.4138 19.2925,11.4776 19.4050,11.4999 19.5175,11.4776 19.6129,11.4138 19.6766,11.3184 19.6990,11.2059 19.6990,9.9940 19.6766,9.8814 19.6129,9.7861 19.5175,9.7223 19.4050,9.6999 19.2925,9.7223 19.1971,9.7861 19.1334,9.8814 19.1110,9.9940 19.1110,11.2059" fill="#C83434"/><polygon points="17.8634,11.3184 17.9271,11.4138 18.0225,11.4776 18.1350,11.4999 18.2475,11.4776 18.3429,11.4138 18.4066,11.3184 18.4290,11.2059 18.4290,9.9940 18.4066,9.8814 18.3429,9.7861 18.2475,9.7223 18.1350,9.6999 18.0225,9.7223 17.9271,9.7861 17.8634,9.8814 17.8410,9.9940 17.8410,11.2059" fill="#C83434"/><polygon points="16.5934,11.3184 16.6571,11.4138 16.7525,11.4776 16.8650,11.4999 16.9775,11.4776 17.0729,11.4138 17.1366,11.3184 17.1590,11.2059 17.1590,9.9940 17.1366,9.8814 17.0729,9.7861 16.9775,9.7223 16.8650,9.6999 16.7525,9.7223 16.6571,9.7861 16.5934,9.8814 16.5710,9.9940 16.5710,11.2059" fill="#C83434"/><polygon points="15.3234,11.3184 15.3871,11.4138 15.4825,11.4776 15.5950,11.4999 15.7075,11.4776 15.8029,11.4138 15.8666,11.3184 15.8890,11.2059 15.8890,9.9940 15.8666,9.8814 15.8029,9.7861 15.7075,9.7223 15.5950,9.6999 15.4825,9.7223 15.3871,9.7861 15.3234,9.8814 15.3010,9.9940 15.3010,11.2059" fill="#C83434"/><polygon points="12.9320,5.4499 12.9320,4.6434 12.0680,4.6434 12.0680,5.4499" fill="#C83434"/><polygon points="12.9320,6.9566 12.9320,6.1501 12.0680,6.1501 12.0680,6.9566" fill="#C83434"/><polygon points="12.9320,9.8499 12.9320,9.0434 12.0680,9.0434 12.0680,9.8499" fill="#C83434"/><polygon points="12.9320,11.3566 12.9320,10.5501 12.0680,10.5501 12.0680,11.3566" fill="#C83434"/><polygon points="21.9320,9.1499 21.9320,8.3434 21.0680,8.3434 21.0680,9.1499" fill="#C83434"/><polygon points="21.9320,10.6566 21.9320,9.8501 21.0680,9.8501 21.0680,10.6566" fill="#C83434"/><polygon points="9.6501,5.9320 10.4566,5.9320 10.4566,5.0680 9.6501,5.0680" fill="#C83434"/><polygon points="8.1434,5.9320 8.9499,5.9320 8.9499,5.0680 8.1434,5.0680" fill="#C83434"/><polygon points="9.6501,10.9320 10.4566,10.9320 10.4566,10.0680 9.6501,10.0680" fill="#C83434"/><polygon points="8.1434,10.9320 8.9499,10.9320 8.9499,10.0680 8.1434,10.0680" fill="#C83434"/><polygon points="10.6750,7.7050 10.6750,6.2950 9.3250,6.2950 9.3250,7.7050" fill="#C83434"/><polygon points="10.6750,9.7050 10.6750,8.2950 9.3250,8.2950 9.3250,9.7050" fill="#C83434"/><polygon points="15.9000,3.2500 16.7000,3.2500 16.7000,2.3500 15.9000,2.3500" fill="#C83434"/><polygon points="14.5000,3.2500 15.3000,3.2500 15.3000,2.3500 14.5000,2.3500" fill="#C83434"/><polygon points="20.8749,11.4000 20.8749,12.4000 22.1249,12.4000 22.1249,11.4000" fill="#C83434"/><polygon points="20.8749,13.6001 20.8749,14.6001 22.1249,14.6001 22.1249,13.6001" fill="#C83434"/><polygon points="0.9963,11.7708 0.8017,11.9008 0.6716,12.0955 0.6259,12.3251 0.6716,12.5547 0.8017,12.7494 0.9963,12.8794 1.2259,12.9251 1.8259,12.9251 2.0555,12.8794 2.2502,12.7494 2.3802,12.5547 2.4259,12.3251 2.3802,12.0955 2.2502,11.9008 2.0555,11.7708 1.8259,11.7251 1.2259,11.7251" fill="#B8B85A"/><circle cx="1.5259" cy="12.3251" r="0.4000" fill="#222"/><polygon points="5.0761,11.7708 4.8815,11.9008 4.7514,12.0955 4.7057,12.3251 4.7514,12.5547 4.8815,12.7494 5.0761,12.8794 5.3057,12.9251 6.1057,12.9251 6.3353,12.8794 6.5300,12.7494 6.6601,12.5547 6.7057,12.3251 6.6601,12.0955 6.5300,11.9008 6.3353,11.7708 6.1057,11.7251 5.3057,11.7251" fill="#B8B85A"/><circle cx="5.7057" cy="12.3251" r="0.4000" fill="#222"/><polygon points="5.0761,3.1206 4.8815,3.2506 4.7514,3.4453 4.7057,3.6749 4.7514,3.9045 4.8815,4.0992 5.0761,4.2292 5.3057,4.2749 6.1057,4.2749 6.3353,4.2292 6.5300,4.0992 6.6601,3.9045 6.7057,3.6749 6.6601,3.4453 6.5300,3.2506 6.3353,3.1206 6.1057,3.0749 5.3057,3.0749" fill="#B8B85A"/><circle cx="5.7057" cy="3.6749" r="0.4000" fill="#222"/><polygon points="0.9963,3.1206 0.8017,3.2506 0.6716,3.4453 0.6259,3.6749 0.6716,3.9045 0.8017,4.0992 0.9963,4.2292 1.2259,4.2749 1.8259,4.2749 2.0555,4.2292 2.2502,4.0992 2.3802,3.9045 2.4259,3.6749 2.3802,3.4453 2.2502,3.2506 2.0555,3.1206 1.8259,3.0749 1.2259,3.0749" fill="#B8B85A"/><circle cx="1.5259" cy="3.6749" r="0.4000" fill="#222"/><circle cx="5.2720" cy="5.6000" r="0.3000" fill="#B8B85A"/><circle cx="5.2720" cy="5.6000" r="0.1500" fill="#222"/><circle cx="10.3520" cy="3.6520" r="0.3000" fill="#B8B85A"/><circle cx="10.3520" cy="3.6520" r="0.1500" fill="#222"/><line x1="2.6243" y1="3.5310" x2="4.4872" y2="3.5310" stroke="#F2EDA1" stroke-width="0.2540" stroke-linecap="round"/><line x1="-1.0941" y1="12.4710" x2="-1.0941" y2="3.5310" stroke="#F2EDA1" stroke-width="0.2540" stroke-linecap="round"/><line x1="-1.0941" y1="3.5310" x2="0.3872" y2="3.5310" stroke="#F2EDA1" stroke-width="0.2540" stroke-linecap="round"/><line x1="2.6239" y1="12.4710" x2="4.4876" y2="12.4710" stroke="#F2EDA1" stroke-width="0.2540" stroke-linecap="round"/><line x1="-1.0941" y1="12.4710" x2="0.3876" y2="12.4710" stroke="#F2EDA1" stroke-width="0.2540" stroke-linecap="round"/><text x="4.0000" y="8.0000" font-family="monospace" font-size="1.0000" text-anchor="middle" fill="#F2EDA1">J1</text><line x1="14.9738" y1="9.5214" x2="20.0262" y2="9.5214" stroke="#F2EDA1" stroke-width="0.1500" stroke-linecap="round"/><line x1="14.9738" y1="6.4786" x2="20.0262" y2="6.4786" stroke="#F2EDA1" stroke-width="0.1500" stroke-linecap="round"/><line x1="14.9738" y1="8.4354" x2="14.9738" y2="9.5214" stroke="#F2EDA1" stroke-width="0.1500" stroke-linecap="round"/><line x1="14.9738" y1="7.5511" x2="14.9738" y2="6.4786" stroke="#F2EDA1" stroke-width="0.1500" stroke-linecap="round"/><line x1="15.4324" y1="9.5214" x2="14.9738" y2="9.5214" stroke="#F2EDA1" stroke-width="0.1500" stroke-linecap="round"/><line x1="16.7024" y1="9.5214" x2="15.7576" y2="9.5214" stroke="#F2EDA1" stroke-width="0.1500" stroke-linecap="round"/><line x1="17.9724" y1="9.5214" x2="17.0276" y2="9.5214" stroke="#F2EDA1" stroke-width="0.1500" stroke-linecap="round"/><line x1="19.2424" y1="9.5214" x2="18.2976" y2="9.5214" stroke="#F2EDA1" stroke-width="0.1500" stroke-linecap="round"/><line x1="20.0262" y1="9.5214" x2="19.5676" y2="9.5214" stroke="#F2EDA1" stroke-width="0.1500" stroke-linecap="round"/><line x1="20.0262" y1="6.4786" x2="20.0262" y2="9.5214" stroke="#F2EDA1" stroke-width="0.1500" stroke-linecap="round"/><line x1="15.4324" y1="6.4786" x2="14.9738" y2="6.4786" stroke="#F2EDA1" stroke-width="0.1500" stroke-linecap="round"/><line x1="16.7024" y1="6.4786" x2="15.7576" y2="6.4786" stroke="#F2EDA1" stroke-width="0.1500" stroke-linecap="round"/><line x1="17.9724" y1="6.4786" x2="17.0276" y2="6.4786" stroke="#F2EDA1" stroke-width="0.1500" stroke-linecap="round"/><line x1="19.2424" y1="6.4786" x2="18.2976" y2="6.4786" stroke="#F2EDA1" stroke-width="0.1500" stroke-linecap="round"/><line x1="20.0262" y1="6.4786" x2="19.5676" y2="6.4786" stroke="#F2EDA1" stroke-width="0.1500" stroke-linecap="round"/><circle cx="15.5950" cy="9.0160" r="0.1501" stroke="#F2EDA1" stroke-width="0.3000" fill="none"/><path d="M 14.9738 8.4354 A 0.4421 0.4421 0 0 1 14.9738 7.5511" stroke="#F2EDA1" stroke-width="0.1500" fill="none" stroke-linecap="round"/><text x="17.5000" y="8.0000" font-family="monospace" font-size="1.0000" text-anchor="middle" fill="#F2EDA1">U1</text><line x1="13.1606" y1="5.3738" x2="13.1606" y2="4.4149" stroke="#F2EDA1" stroke-width="0.1524" stroke-linecap="round"/><line x1="13.1606" y1="4.4149" x2="11.8394" y2="4.4149" stroke="#F2EDA1" stroke-width="0.1524" stroke-linecap="round"/><line x1="11.8394" y1="4.4149" x2="11.8394" y2="5.3738" stroke="#F2EDA1" stroke-width="0.1524" stroke-linecap="round"/><line x1="13.1606" y1="6.2262" x2="13.1606" y2="7.1851" stroke="#F2EDA1" stroke-width="0.1524" stroke-linecap="round"/><line x1="13.1606" y1="7.1851" x2="11.8394" y2="7.1851" stroke="#F2EDA1" stroke-width="0.1524" stroke-linecap="round"/><line x1="11.8394" y1="7.1851" x2="11.8394" y2="6.2262" stroke="#F2EDA1" stroke-width="0.1524" stroke-linecap="round"/><text x="12.5000" y="5.8000" font-family="monospace" font-size="1.0000" text-anchor="middle" fill="#F2EDA1">R1</text><line x1="13.1606" y1="9.7738" x2="13.1606" y2="8.8149" stroke="#F2EDA1" stroke-width="0.1524" stroke-linecap="round"/><line x1="13.1606" y1="8.8149" x2="11.8394" y2="8.8149" stroke="#F2EDA1" stroke-width="0.1524" stroke-linecap="round"/><line x1="11.8394" y1="8.8149" x2="11.8394" y2="9.7738" stroke="#F2EDA1" stroke-width="0.1524" stroke-linecap="round"/><line x1="13.1606" y1="10.6262" x2="13.1606" y2="11.5851" stroke="#F2EDA1" stroke-width="0.1524" stroke-linecap="round"/><line x1="13.1606" y1="11.5851" x2="11.8394" y2="11.5851" stroke="#F2EDA1" stroke-width="0.1524" stroke-linecap="round"/><line x1="11.8394" y1="11.5851" x2="11.8394" y2="10.6262" stroke="#F2EDA1" stroke-width="0.1524" stroke-linecap="round"/><text x="12.5000" y="10.2000" font-family="monospace" font-size="1.0000" text-anchor="middle" fill="#F2EDA1">R2</text><line x1="22.1606" y1="9.0738" x2="22.1606" y2="8.1149" stroke="#F2EDA1" stroke-width="0.1524" stroke-linecap="round"/><line x1="22.1606" y1="8.1149" x2="20.8394" y2="8.1149" stroke="#F2EDA1" stroke-width="0.1524" stroke-linecap="round"/><line x1="20.8394" y1="8.1149" x2="20.8394" y2="9.0738" stroke="#F2EDA1" stroke-width="0.1524" stroke-linecap="round"/><line x1="22.1606" y1="9.9262" x2="22.1606" y2="10.8851" stroke="#F2EDA1" stroke-width="0.1524" stroke-linecap="round"/><line x1="22.1606" y1="10.8851" x2="20.8394" y2="10.8851" stroke="#F2EDA1" stroke-width="0.1524" stroke-linecap="round"/><line x1="20.8394" y1="10.8851" x2="20.8394" y2="9.9262" stroke="#F2EDA1" stroke-width="0.1524" stroke-linecap="round"/><text x="21.5000" y="9.5000" font-family="monospace" font-size="1.0000" text-anchor="middle" fill="#F2EDA1">R3</text><line x1="9.7262" y1="6.1606" x2="10.6851" y2="6.1606" stroke="#F2EDA1" stroke-width="0.1524" stroke-linecap="round"/><line x1="10.6851" y1="6.1606" x2="10.6851" y2="4.8394" stroke="#F2EDA1" stroke-width="0.1524" stroke-linecap="round"/><line x1="10.6851" y1="4.8394" x2="9.7262" y2="4.8394" stroke="#F2EDA1" stroke-width="0.1524" stroke-linecap="round"/><line x1="8.8738" y1="6.1606" x2="7.9149" y2="6.1606" stroke="#F2EDA1" stroke-width="0.1524" stroke-linecap="round"/><line x1="7.9149" y1="6.1606" x2="7.9149" y2="4.8394" stroke="#F2EDA1" stroke-width="0.1524" stroke-linecap="round"/><line x1="7.9149" y1="4.8394" x2="8.8738" y2="4.8394" stroke="#F2EDA1" stroke-width="0.1524" stroke-linecap="round"/><text x="9.3000" y="5.5000" font-family="monospace" font-size="1.0000" text-anchor="middle" fill="#F2EDA1">R4</text><line x1="9.7262" y1="11.1606" x2="10.6851" y2="11.1606" stroke="#F2EDA1" stroke-width="0.1524" stroke-linecap="round"/><line x1="10.6851" y1="11.1606" x2="10.6851" y2="9.8394" stroke="#F2EDA1" stroke-width="0.1524" stroke-linecap="round"/><line x1="10.6851" y1="9.8394" x2="9.7262" y2="9.8394" stroke="#F2EDA1" stroke-width="0.1524" stroke-linecap="round"/><line x1="8.8738" y1="11.1606" x2="7.9149" y2="11.1606" stroke="#F2EDA1" stroke-width="0.1524" stroke-linecap="round"/><line x1="7.9149" y1="11.1606" x2="7.9149" y2="9.8394" stroke="#F2EDA1" stroke-width="0.1524" stroke-linecap="round"/><line x1="7.9149" y1="9.8394" x2="8.8738" y2="9.8394" stroke="#F2EDA1" stroke-width="0.1524" stroke-linecap="round"/><text x="9.3000" y="10.5000" font-family="monospace" font-size="1.0000" text-anchor="middle" fill="#F2EDA1">R5</text><line x1="9.0964" y1="6.1888" x2="9.0964" y2="7.5988" stroke="#F2EDA1" stroke-width="0.1524" stroke-linecap="round"/><line x1="10.9036" y1="7.5988" x2="10.9036" y2="6.1888" stroke="#F2EDA1" stroke-width="0.1524" stroke-linecap="round"/><line x1="10.7512" y1="6.0364" x2="9.2488" y2="6.0364" stroke="#F2EDA1" stroke-width="0.1524" stroke-linecap="round"/><line x1="9.0964" y1="9.8112" x2="9.0964" y2="8.4012" stroke="#F2EDA1" stroke-width="0.1524" stroke-linecap="round"/><line x1="10.9036" y1="8.4012" x2="10.9036" y2="9.8112" stroke="#F2EDA1" stroke-width="0.1524" stroke-linecap="round"/><line x1="10.7512" y1="9.9636" x2="9.2488" y2="9.9636" stroke="#F2EDA1" stroke-width="0.1524" stroke-linecap="round"/><path d="M 10.9036 6.1888 A 0.1524 0.1524 0 1 1 10.7512 6.0364" stroke="#F2EDA1" stroke-width="0.1524" fill="none" stroke-linecap="round"/><path d="M 9.2488 6.0364 A 0.1524 0.1524 0 1 1 9.0964 6.1888" stroke="#F2EDA1" stroke-width="0.1524" fill="none" stroke-linecap="round"/><path d="M 10.9036 9.8112 A 0.1524 0.1524 0 1 0 10.7512 9.9636" stroke="#F2EDA1" stroke-width="0.1524" fill="none" stroke-linecap="round"/><path d="M 9.2488 9.9636 A 0.1524 0.1524 0 1 0 9.0964 9.8112" stroke="#F2EDA1" stroke-width="0.1524" fill="none" stroke-linecap="round"/><text x="10.0000" y="8.0000" font-family="monospace" font-size="1.0000" text-anchor="middle" fill="#F2EDA1">C1</text><line x1="15.3198" y1="3.5096" x2="14.5198" y2="3.5096" stroke="#F2EDA1" stroke-width="0.2540" stroke-linecap="round"/><line x1="15.8803" y1="3.5100" x2="16.6802" y2="3.5100" stroke="#F2EDA1" stroke-width="0.2540" stroke-linecap="round"/><line x1="15.3198" y1="2.0899" x2="14.5198" y2="2.0899" stroke="#F2EDA1" stroke-width="0.2540" stroke-linecap="round"/><line x1="15.8803" y1="2.0904" x2="16.6802" y2="2.0904" stroke="#F2EDA1" stroke-width="0.2540" stroke-linecap="round"/><line x1="14.2101" y1="3.1997" x2="14.2101" y2="2.3997" stroke="#F2EDA1" stroke-width="0.2540" stroke-linecap="round"/><line x1="16.9900" y1="2.4002" x2="16.9900" y2="3.2003" stroke="#F2EDA1" stroke-width="0.2540" stroke-linecap="round"/><path d="M 16.6802 2.0904 A 0.3098 0.3098 0 1 0 16.9900 2.4002" stroke="#F2EDA1" stroke-width="0.2540" fill="none" stroke-linecap="round"/><path d="M 16.9900 3.2002 A 0.3098 0.3098 0 1 0 16.6802 3.5100" stroke="#F2EDA1" stroke-width="0.2540" fill="none" stroke-linecap="round"/><path d="M 14.5199 3.5096 A 0.3098 0.3098 0 1 0 14.2101 3.1997" stroke="#F2EDA1" stroke-width="0.2540" fill="none" stroke-linecap="round"/><path d="M 14.2101 2.3998 A 0.3098 0.3098 0 1 0 14.5199 2.0899" stroke="#F2EDA1" stroke-width="0.2540" fill="none" stroke-linecap="round"/><text x="15.6000" y="2.8000" font-family="monospace" font-size="1.0000" text-anchor="middle" fill="#F2EDA1">C2</text><line x1="20.5500" y1="12.5001" x2="20.5400" y2="11.0200" stroke="#F2EDA1" stroke-width="0.2540" stroke-linecap="round"/><line x1="22.4400" y1="12.3600" x2="22.4400" y2="11.0200" stroke="#F2EDA1" stroke-width="0.2540" stroke-linecap="round"/><line x1="20.5400" y1="11.0200" x2="22.4400" y2="11.0200" stroke="#F2EDA1" stroke-width="0.2540" stroke-linecap="round"/><line x1="22.4500" y1="14.7501" x2="22.4500" y2="14.7501" stroke="#F2EDA1" stroke-width="0.2540" stroke-linecap="round"/><line x1="22.4500" y1="14.7501" x2="22.1000" y2="15.1000" stroke="#F2EDA1" stroke-width="0.2540" stroke-linecap="round"/><line x1="20.5500" y1="14.7501" x2="20.5500" y2="14.7501" stroke="#F2EDA1" stroke-width="0.2540" stroke-linecap="round"/><line x1="20.5500" y1="14.7501" x2="20.9000" y2="15.1000" stroke="#F2EDA1" stroke-width="0.2540" stroke-linecap="round"/><line x1="20.5500" y1="13.5001" x2="20.5500" y2="14.7501" stroke="#F2EDA1" stroke-width="0.2540" stroke-linecap="round"/><line x1="22.4500" y1="13.5001" x2="22.4500" y2="14.7501" stroke="#F2EDA1" stroke-width="0.2540" stroke-linecap="round"/><line x1="20.9000" y1="15.1000" x2="22.1000" y2="15.1000" stroke="#F2EDA1" stroke-width="0.2540" stroke-linecap="round"/><line x1="21.0000" y1="12.7000" x2="22.0000" y2="12.7000" stroke="#F2EDA1" stroke-width="0.2540" stroke-linecap="round"/><line x1="21.5051" y1="12.7000" x2="21.5051" y2="13.2000" stroke="#F2EDA1" stroke-width="0.2540" stroke-linecap="round"/><text x="21.5000" y="13.0000" font-family="monospace" font-size="1.0000" text-anchor="middle" fill="#F2EDA1">D1</text><text x="14.0000" y="14.5000" font-family="monospace" font-size="1.2000" text-anchor="middle" fill="#F2EDA1">BLINK v1</text><polygon points="2.0000,16.0000 26.0000,16.0000 26.7654,15.8478 27.4142,15.4142 27.8478,14.7654 28.0000,14.0000 28.0000,2.0000 27.8478,1.2346 27.4142,0.5858 26.7654,0.1522 26.0000,0.0000 2.0000,0.0000 1.2346,0.1522 0.5858,0.5858 0.1522,1.2346 0.0000,2.0000 0.0000,14.0000 0.1522,14.7654 0.5858,15.4142 1.2346,15.8478" fill="none" stroke="#D0D2CD" stroke-width="0.1"/></svg>